<?xml version="1.0" standalone="no"?>
<!DOCTYPE svg PUBLIC "-//W3C//DTD SVG 20010904//EN"
 "http://www.w3.org/TR/2001/REC-SVG-20010904/DTD/svg10.dtd">
<svg version="1.0" xmlns="http://www.w3.org/2000/svg"
 width="736.000000pt" height="736.000000pt" viewBox="0 0 736.000000 736.000000"
 preserveAspectRatio="xMidYMid meet">
<metadata>
Created by potrace 1.11, written by Peter Selinger 2001-2013
</metadata>
<g transform="translate(0.000000,736.000000) scale(0.100000,-0.100000)"
fill="#000000" stroke="none">
<path d="M3128 7355 c-1 -2 -34 -6 -73 -9 -105 -9 -167 -16 -195 -22 -14 -3
-43 -7 -65 -10 -34 -4 -163 -31 -245 -51 -14 -3 -32 -8 -41 -9 -46 -9 -284
-87 -349 -114 -41 -17 -89 -36 -107 -41 -42 -13 -381 -184 -403 -204 -9 -8
-20 -15 -24 -15 -4 0 -34 -18 -67 -40 -33 -22 -64 -40 -69 -40 -5 0 -10 -4
-12 -8 -1 -4 -34 -30 -73 -57 -315 -221 -664 -586 -869 -909 l-38 -59 174
-174 175 -175 44 74 c24 40 46 75 49 78 3 3 18 25 35 50 58 88 240 320 267
340 3 3 53 50 110 105 127 123 155 147 293 250 170 126 261 182 461 280 61 30
118 55 126 55 9 0 21 7 28 15 7 9 15 13 18 11 2 -3 16 1 31 8 24 13 207 76
241 83 27 6 45 11 45 13 0 2 33 10 55 14 8 1 31 6 50 11 19 5 38 10 43 11 4 1
8 2 10 4 1 1 11 3 22 4 11 2 38 6 60 11 22 4 51 8 65 10 14 2 25 4 25 5 0 4
142 18 256 25 42 2 80 5 85 6 5 1 11 1 14 0 3 -1 84 -3 180 -6 96 -3 184 -7
195 -8 11 -2 49 -7 85 -12 36 -4 74 -9 85 -11 11 -3 36 -7 55 -10 19 -3 64
-12 100 -20 36 -8 76 -17 90 -20 14 -2 84 -23 155 -46 72 -23 132 -42 135 -43
75 -22 425 -190 461 -221 8 -8 19 -14 23 -14 22 0 290 -195 406 -295 85 -72
283 -278 356 -370 81 -102 94 -120 141 -190 14 -22 30 -41 34 -43 5 -2 9 -7 9
-11 0 -5 24 -48 54 -97 59 -99 186 -355 186 -376 0 -8 4 -18 9 -23 13 -15 87
-238 116 -351 26 -102 31 -124 40 -179 3 -16 7 -43 10 -60 3 -16 7 -48 10 -70
3 -22 7 -51 10 -65 23 -115 23 -524 0 -687 -3 -21 -8 -56 -11 -78 -10 -75 -15
-100 -35 -190 -23 -101 -22 -99 -44 -175 -9 -30 -18 -63 -20 -73 -23 -103
-199 -501 -261 -593 -13 -19 -24 -37 -24 -40 0 -4 -47 -79 -63 -99 -4 -5 -29
-40 -55 -76 -69 -97 -126 -172 -161 -210 -17 -18 -31 -37 -31 -41 0 -4 75 -82
166 -173 l165 -166 22 23 c40 44 112 131 142 171 16 23 40 52 52 65 13 14 23
28 23 33 0 4 6 14 13 21 13 14 125 180 143 213 6 11 32 58 57 104 26 46 47 87
47 91 0 4 9 19 21 34 11 14 18 26 16 26 -3 0 9 30 27 68 112 229 211 549 261
842 13 75 15 87 20 135 3 28 8 62 10 76 14 78 24 418 13 441 -5 9 -4 20 2 23
6 4 8 10 6 14 -3 4 -7 47 -11 97 -6 88 -11 147 -20 214 -12 84 -18 121 -36
220 -25 129 -27 137 -34 160 -3 10 -8 28 -10 40 -8 40 -87 284 -117 360 -107
272 -295 615 -425 775 -5 6 -19 26 -33 45 -13 19 -27 37 -30 40 -3 3 -25 30
-50 60 -95 116 -317 343 -411 420 -23 19 -47 40 -53 45 -6 6 -31 26 -56 45
-25 19 -46 38 -48 42 -2 5 -8 8 -14 8 -5 0 -16 7 -24 15 -23 23 -271 185 -283
185 -6 0 -11 3 -11 8 0 4 -10 12 -23 18 -12 6 -78 40 -147 76 -108 56 -363
168 -382 168 -4 0 -19 5 -35 12 -15 6 -32 12 -38 14 -5 1 -55 16 -111 33 -170
52 -392 98 -559 116 -33 4 -73 9 -90 12 -34 6 -541 13 -547 8z"/>
<path d="M3247 6533 c-1 0 -36 -4 -77 -7 -91 -7 -140 -13 -245 -33 -44 -8 -87
-15 -95 -15 -23 -1 -216 -54 -297 -82 -82 -28 -295 -117 -303 -126 -4 -6 -37
-22 -50 -24 -11 -3 -160 -93 -230 -139 -82 -54 -260 -194 -260 -204 0 -3 74
-80 164 -170 139 -139 167 -163 183 -155 17 9 80 56 112 84 102 87 438 257
581 293 3 1 12 5 20 8 17 7 123 34 161 41 13 2 24 5 24 6 0 1 9 3 20 5 11 1
36 6 55 9 150 27 332 35 500 23 87 -6 121 -10 190 -23 14 -2 41 -7 60 -10 19
-3 76 -17 125 -30 50 -14 97 -27 105 -29 55 -14 258 -99 300 -125 8 -5 30 -16
48 -24 30 -14 261 -162 272 -175 3 -3 32 -28 65 -55 116 -96 266 -257 346
-370 19 -27 46 -66 62 -88 15 -21 27 -41 27 -44 0 -3 8 -18 19 -32 26 -37 124
-234 124 -249 0 -7 4 -13 8 -13 3 0 9 -10 12 -22 3 -13 21 -68 40 -124 19 -55
37 -113 40 -130 3 -16 9 -47 15 -69 59 -218 63 -562 11 -835 -6 -30 -19 -84
-29 -120 -9 -36 -18 -67 -18 -70 -9 -67 -126 -337 -197 -454 -19 -32 -35 -62
-35 -67 0 -5 -4 -9 -10 -9 -5 0 -10 -7 -10 -15 0 -8 -4 -15 -9 -15 -5 0 -12
-8 -15 -18 -4 -10 -14 -27 -24 -38 -9 -10 -37 -46 -62 -78 -51 -68 -223 -245
-288 -296 -24 -19 -53 -43 -64 -52 -10 -9 -45 -34 -76 -55 -31 -21 -58 -41
-60 -45 -2 -5 -8 -8 -12 -8 -5 0 -38 -18 -72 -40 -35 -22 -69 -40 -75 -40 -7
0 -13 -4 -13 -10 0 -5 -5 -10 -12 -10 -9 0 -108 -45 -128 -58 -2 -1 76 -83
174 -181 172 -172 180 -179 205 -168 14 6 28 14 31 17 3 3 21 14 40 24 46 25
250 160 277 183 11 10 36 30 54 45 174 138 370 348 501 538 65 94 150 242 196
340 59 126 82 180 75 180 -3 0 -1 6 5 13 17 20 86 239 101 322 5 28 12 57 15
65 3 8 7 31 10 50 3 19 8 49 11 65 13 77 15 95 22 170 12 154 6 478 -12 555
-4 14 -7 43 -9 65 -2 22 -6 49 -9 60 -3 11 -8 37 -12 59 -3 21 -7 42 -10 46
-2 3 -7 22 -10 41 -18 102 -98 336 -154 449 -17 33 -27 60 -24 60 3 0 -2 9
-12 20 -10 11 -16 20 -12 20 3 0 -17 39 -45 88 -28 48 -56 96 -62 107 -12 21
-46 73 -58 90 -5 6 -39 51 -76 100 -136 181 -304 350 -482 486 -174 132 -363
243 -555 324 -22 9 -48 21 -57 26 -10 5 -26 9 -36 9 -10 0 -22 4 -27 9 -24 23
-358 109 -495 128 -19 2 -51 6 -70 9 -78 10 -406 24 -413 17z"/>
<path d="M1328 5598 c-46 -47 -202 -249 -265 -341 -130 -191 -247 -407 -330
-612 -24 -60 -48 -119 -53 -130 -23 -49 -109 -351 -124 -435 -3 -19 -9 -46
-12 -60 -8 -39 -12 -62 -19 -104 -3 -21 -8 -48 -10 -60 -6 -23 -11 -66 -22
-191 -4 -44 -8 -179 -8 -300 1 -198 5 -285 20 -410 3 -22 6 -47 6 -55 3 -35
45 -262 54 -290 3 -10 7 -27 9 -37 18 -90 88 -319 112 -365 8 -16 12 -28 10
-28 -14 0 144 -341 219 -475 73 -128 259 -399 314 -457 9 -9 27 -30 39 -47 57
-74 270 -291 366 -373 22 -18 50 -43 63 -56 13 -12 28 -22 33 -22 4 0 10 -4
12 -8 2 -4 39 -35 83 -68 355 -268 747 -456 1185 -568 126 -32 292 -67 308
-65 4 1 9 1 12 -1 14 -5 57 -10 215 -27 94 -10 500 -10 600 1 44 4 94 9 110
11 17 1 50 6 75 10 25 5 52 9 60 10 64 9 98 15 220 43 158 37 334 91 470 147
30 12 64 26 75 30 11 5 22 9 25 9 10 3 296 146 325 163 158 94 380 243 405
272 3 3 39 33 80 65 109 86 371 353 473 481 85 106 221 298 233 328 3 9 -57
76 -167 186 l-173 171 -20 -33 c-11 -17 -45 -70 -76 -117 -30 -47 -56 -88 -58
-93 -2 -4 -12 -17 -22 -30 -11 -12 -56 -69 -102 -127 -83 -105 -198 -225 -319
-332 -35 -32 -71 -64 -79 -71 -72 -66 -331 -241 -448 -303 -48 -25 -91 -49
-97 -53 -34 -26 -321 -138 -490 -191 -87 -27 -320 -75 -412 -85 -17 -2 -49 -6
-70 -10 -21 -3 -90 -8 -153 -11 -252 -13 -432 -2 -694 43 -54 9 -239 52 -291
67 -5 2 -12 4 -15 4 -25 5 -255 92 -339 129 -205 91 -456 242 -606 364 -197
161 -326 290 -494 494 -165 200 -361 558 -447 815 -14 41 -28 82 -31 90 -3 8
-7 20 -8 25 0 6 -4 17 -8 25 -6 15 -36 127 -43 165 -11 56 -13 66 -18 73 -3 5
-8 33 -11 62 -4 30 -8 57 -10 60 -2 3 -6 33 -10 65 -3 33 -8 76 -11 95 -5 42
-15 214 -15 290 -1 73 10 299 15 330 3 14 7 46 10 72 3 26 8 58 10 70 3 13 8
40 11 62 3 21 7 41 9 45 2 3 7 24 10 45 13 84 91 350 126 431 49 115 115 261
120 265 3 3 18 30 33 60 30 61 69 132 77 140 3 3 27 39 54 80 51 79 174 241
226 299 l30 34 -158 159 c-86 87 -164 162 -172 167 -10 5 -21 1 -32 -11z"/>
<path d="M2645 5602 c-105 -59 -259 -156 -275 -172 -3 -3 -30 -24 -61 -46
-110 -83 -269 -230 -361 -335 -24 -28 -58 -67 -76 -87 -18 -20 -40 -49 -48
-64 -8 -16 -19 -28 -24 -28 -6 0 -10 -6 -10 -14 0 -8 -4 -16 -8 -18 -7 -2 -76
-107 -129 -193 -29 -47 -113 -216 -142 -285 -18 -41 -36 -84 -41 -95 -14 -30
-67 -201 -85 -272 -16 -60 -20 -78 -30 -133 -3 -14 -7 -36 -10 -50 -3 -14 -8
-49 -11 -79 -3 -30 -8 -64 -10 -75 -15 -66 -21 -396 -10 -493 3 -29 9 -77 12
-105 17 -146 53 -312 100 -463 36 -112 105 -289 116 -293 4 -2 8 -9 8 -16 0
-18 24 -66 33 -66 4 0 7 -8 7 -18 0 -10 4 -22 9 -27 5 -6 19 -27 30 -47 52
-94 65 -115 115 -188 28 -42 57 -83 64 -91 6 -8 35 -43 64 -79 112 -139 205
-233 348 -354 91 -76 300 -226 316 -226 3 0 18 -9 33 -20 39 -27 253 -132 326
-159 33 -13 69 -27 80 -31 44 -19 178 -60 260 -79 90 -22 224 -47 300 -55 33
-4 80 -9 105 -12 105 -11 391 -5 501 11 20 3 54 8 75 10 51 6 93 13 124 20 14
3 36 8 50 11 111 22 310 84 430 134 137 56 439 223 497 274 6 6 52 43 102 81
50 39 90 76 88 82 -2 14 -317 333 -327 333 -4 0 -23 -13 -41 -30 -19 -16 -37
-30 -40 -30 -4 0 -22 -13 -40 -30 -19 -16 -39 -30 -46 -30 -6 0 -13 -4 -15 -8
-8 -21 -328 -195 -383 -209 -5 -1 -47 -16 -93 -32 -45 -17 -93 -33 -105 -35
-12 -3 -38 -10 -57 -16 -197 -60 -550 -80 -800 -45 -217 30 -441 101 -647 206
-97 49 -288 169 -303 189 -3 4 -12 11 -21 16 -39 21 -194 166 -280 260 -55 60
-169 211 -169 222 0 6 -3 12 -7 14 -11 4 -63 85 -63 97 0 5 -4 11 -8 13 -7 2
-95 178 -122 243 -40 98 -100 295 -114 375 -3 19 -8 44 -10 55 -34 189 -37
494 -6 655 6 30 13 69 15 85 2 17 7 40 10 53 3 12 7 30 9 40 128 568 551 1098
1083 1357 57 28 103 53 103 57 0 7 -348 359 -353 357 -1 0 -16 -8 -32 -17z"/>
</g>
</svg>
